<svg width="34" height="37" viewBox="0 0 34 37" fill="none" xmlns="http://www.w3.org/2000/svg">
<path id="Subtract" d="M12.2383 11.9661C13.513 10.5016 13.5939 8.2709 12.6264 6.55477C12.3663 6.0934 12.1159 5.62362 11.8757 5.14585C10.0648 1.54464 5.72233 -0.265926 2.51974 1.93934C0.640412 3.23341 -0.423404 5.62849 0.15987 7.94848C1.27108 12.3684 3.25697 16.9695 6.09734 21.3293C12.8805 31.7412 22.519 37.6796 30.0845 36.9126C31.2455 36.7949 32.2253 36.0008 32.8504 34.9398L33.3822 34.0371C35.238 30.8872 32.5976 25.9985 29.6398 24.0594C29.4505 23.9353 29.2635 23.8059 29.079 23.6713C27.3665 22.4216 24.9577 22.3006 23.5427 23.9262C22.2396 25.4233 20.0572 25.4984 18.6681 24.0938L12.4099 17.7656C10.8767 16.2152 10.7998 13.6187 12.2383 11.9661Z" fill="white"/>
</svg>
