<svg width="21" height="37" viewBox="0 0 21 37" fill="none" xmlns="http://www.w3.org/2000/svg">
<g id="Union">
<path d="M10.5 18.2588C15.4706 18.2588 19.5 14.3905 19.5 9.61879C19.5 4.84705 15.4706 0.97879 10.5 0.97879C5.52944 0.97879 1.5 4.84705 1.5 9.61879C1.5 14.3905 5.52944 18.2588 10.5 18.2588Z" fill="white"/>
<path d="M3.15153 18.2588C1.2067 20.0883 0 22.6383 0 25.4588C0 25.4845 0.000100335 25.5102 0.000300649 25.5359C0.000100438 25.5502 0 25.5645 0 25.5788V33.9788C0 35.6356 1.34315 36.9788 3 36.9788H18C19.6569 36.9788 21 35.6356 21 33.9788V25.5788C21 25.5735 21 25.5682 21 25.5629C20.9999 25.5539 20.9998 25.5449 20.9997 25.5359C20.9999 25.5102 21 25.4845 21 25.4588C21 22.6383 19.7933 20.0883 17.8485 18.2588C15.9547 20.0403 13.361 21.1388 10.5 21.1388C7.63904 21.1388 5.04533 20.0403 3.15153 18.2588Z" fill="white"/>
</g>
</svg>
