<svg width="32" height="33" viewBox="0 0 32 33" fill="none" xmlns="http://www.w3.org/2000/svg">
<g id="Vector">
<path d="M27.4516 15.5106C27.4516 14.9583 27.0039 14.5106 26.4516 14.5106H5.99998C5.4477 14.5106 4.99998 14.9583 4.99998 15.5106V31.4894C4.99998 32.0417 5.4477 32.4894 5.99998 32.4894H11.0968C11.649 32.4894 12.0968 32.0417 12.0968 31.4894V21.9558C12.0968 21.4035 12.5445 20.9558 13.0968 20.9558H19.4839C20.0361 20.9558 20.4839 21.4035 20.4839 21.9558V31.4894C20.4839 32.0417 20.9316 32.4894 21.4839 32.4894H26.4516C27.0039 32.4894 27.4516 32.0417 27.4516 31.4894V15.5106Z" fill="white"/>
<path d="M15.2919 1.22063C15.6826 0.828801 16.3173 0.828801 16.7081 1.22063L30.753 15.3045C31.3817 15.9348 30.9352 17.0106 30.045 17.0106H1.95501C1.06477 17.0106 0.6183 15.9348 1.24692 15.3045L15.2919 1.22063Z" fill="white"/>
</g>
</svg>
